<?xml version="1.0" encoding="UTF-8"?>
<!-- Generator: Adobe Illustrator 18.1.1, SVG Export Plug-In . SVG Version: 6.00 Build 0)  -->
<svg version="1.1" id="Layer_1" xmlns="http://www.w3.org/2000/svg" xmlns:xlink="http://www.w3.org/1999/xlink" x="0px" y="0px" viewBox="-88.5 347.9 789.7 96.5" enable-background="new -88.5 347.9 789.7 96.5" xml:space="preserve">
<g>
	<g>
		<g>
			<g>
				<g>
					<path fill="#FFFFFF" d="M-13.1,442.1v-9.7C-19.8,440-28.9,444-40.6,444c-25.8,0-47.9-21-47.9-48.3c0-27.8,22.6-47.8,47.5-47.8       c13.7,0,20.9,5.5,25.7,8.5v-6.9H3.5v30.3h-25.1c-5.1-6-10.8-9.2-18.8-9.2c-14.4,0-25.3,10.5-25.3,24.9       c0,14.8,11.4,25.4,25.3,25.4c8.5,0,16-4.4,20.5-12h-26.5v-18.9H5.5V442h-18.6V442.1z"/>
					<path fill="#FFFFFF" d="M41.6,410.2v12.9h7.2v19h-35v-19h7.3v-31.8h-7.3v-18.9h26.1v10.5c5.7-8.5,11.3-10.9,19.8-11.4v21       C48,393.1,41.6,399.4,41.6,410.2z"/>
					<path fill="#FFFFFF" d="M97.7,444.4c-20.5,0-37.1-16.8-37.1-37.1c0-20.4,16.5-37,37.1-37s37.1,16.4,37.1,36.9       C134.8,427.6,118.3,444.4,97.7,444.4z M97.7,390.5c-9,0-16.2,7.6-16.2,16.8s7.2,16.9,16.2,16.9s16.2-7.7,16.2-16.9       C114.1,397.9,106.8,390.5,97.7,390.5z"/>
					<path fill="#FFFFFF" d="M234.5,391.3l-17,50.8h-19.3l-11-36.5l-13.3,36.5h-18.4l-14.1-50.8h-6.9v-18.9h32.7v18.9h-5.9l5.9,22.1       l12.4-41h16.8l11.8,41l6.4-22.1h-5.9v-18.9h33.8v18.9H234.5z"/>
					<path fill="#FFFFFF" d="M294.4,444.1c-25,0-47.8-20.6-47.8-48.6c0-27,22.1-47.5,46.7-47.5c10.4,0,19,3.3,25.8,10.1v-8.2H338       V384h-22c-4.9-8.8-13.3-12.9-22.1-12.9c-13.4,0-24.3,10.1-24.3,24.5c0,14.1,10.9,25.8,24.9,25.8c8.9,0,17-4.8,21.6-13.3h24.9       C334,431.2,313.3,444.1,294.4,444.1z"/>
					<path fill="#FFFFFF" d="M372.1,410.2v12.9h7.2v19h-35.1v-19h7.3v-31.8h-7.3v-18.9h26.1v10.5c5.7-8.5,11.3-10.9,19.8-11.4v21       C378.3,393.1,372.1,399.4,372.1,410.2z"/>
					<path fill="#FFFFFF" d="M462.4,415h-51.8c3.3,7.3,10,11.2,17,11.2c4.8,0,9-1.6,12-4.8h20.9c-5.7,13.7-18.4,23-33,23       c-19.7,0-36.7-15.3-36.7-37c0-21.2,16.4-37,36.2-37c19.2,0,36.2,14.9,36.2,36.5C463.5,410.2,462.9,412.8,462.4,415z M427,388.5       c-6.9,0-13.7,4.3-16.4,11.4h34.1C441.2,392.1,434.2,388.5,427,388.5z"/>
					<path fill="#FFFFFF" d="M520.7,442.1v-6c-4.5,5.3-11.2,8.1-19.2,8.1c-19.4,0-35-16.9-35-36.7c0-20.6,16.4-37.4,35.8-37.4       c7.8,0,13.8,2.9,18.4,8.9v-6.8h27.9v18.9h-7.3v31.9h7.3v19H520.7z M504.3,390.5c-9.3,0-16.9,7.6-16.9,17       c0,9.3,7.5,16.6,16.8,16.6c9.2,0,16.6-7.6,16.6-17C520.8,397.9,513.5,390.5,504.3,390.5z"/>
					<path fill="#FFFFFF" d="M561.5,442.1v-50.8h-9.6v-18.9h9.6v-22.6h20.6v22.6h9.6v18.9h-9.6v31.8h10v19H561.5z"/>
					<path fill="#FFFFFF" d="M666.5,415h-51.8c3.3,7.3,10,11.2,17,11.2c4.8,0,9-1.6,12-4.8h20.9c-5.7,13.7-18.4,23-33,23       c-19.7,0-36.7-15.3-36.7-37c0-21.2,16.4-37,36.2-37c19.2,0,36.2,14.9,36.2,36.5C667.4,410.2,666.9,412.8,666.5,415z M631,388.5       c-6.9,0-13.7,4.3-16.4,11.4h34.1C645.2,392.1,638.3,388.5,631,388.5z"/>
				</g>
			</g>
		</g>
	</g>
	<rect x="674.3" y="416.4" fill="#E72171" width="26.9" height="26.6"/>
</g>
</svg>